<?xml version="1.0" encoding="iso-8859-1"?>
<!-- Generator: Adobe Illustrator 19.0.0, SVG Export Plug-In . SVG Version: 6.00 Build 0)  -->
<svg version="1.1" id="Layer_1" xmlns="http://www.w3.org/2000/svg" xmlns:xlink="http://www.w3.org/1999/xlink" x="0px" y="0px"
	 viewBox="0 0 512 512" style="enable-background:new 0 0 512 512;" xml:space="preserve">
<g>
	<g>
		<path d="M85.829,49.641c-84.244,0-117.789,109.304-48.544,156.753c18.366-52.334,51.964-106.059,95.979-142.551
			C119.562,54.786,103.201,49.641,85.829,49.641z"/>
	</g>
</g>
<g>
	<g>
		<path d="M426.159,49.641c-17.372,0-33.731,5.143-47.435,14.2c43.998,36.484,77.482,90.212,95.88,142.624
			C544.017,159.047,510.424,49.641,426.159,49.641z"/>
	</g>
</g>
<g>
	<g>
		<path d="M361.774,307.617h96.572c3.286-103.424-78.181-243.579-185.653-256.926v78.221c0,9.222-7.477,16.699-16.699,16.699
			s-16.699-7.477-16.699-16.699V50.691C132.38,63.969,50.113,203.472,53.651,307.617h96.563c9.222,0,16.699,7.477,16.699,16.699
			c0,9.222-7.477,16.699-16.699,16.699H57.922c4.499,19.548,12.473,37.76,24.336,53.834l60.882-28.399
			c8.359-3.9,18.295-0.284,22.193,8.075c3.899,8.359,0.284,18.295-8.075,22.193l-50.575,23.591
			c27.438,22.213,69.173,39.474,132.612,42.048V373.88l-29.323-33.859c-9.34-10.785-1.67-27.631,12.624-27.631h66.797
			c14.256,0,21.986,16.82,12.623,27.631l-29.323,33.859v88.478c63.552-2.567,105.321-19.805,132.752-41.983l-50.717-23.657
			c-8.359-3.899-11.973-13.835-8.075-22.193c3.899-8.359,13.836-11.972,22.193-8.075l61.031,28.469
			c11.844-16.058,19.799-34.26,24.272-53.904h-92.377c-9.222,0-16.699-7.477-16.699-16.699
			C345.075,315.094,352.552,307.617,361.774,307.617z M175.129,249.421c-12.2,0-22.091-9.89-22.091-22.091
			c0-12.201,9.89-22.091,22.091-22.091c12.201,0,22.091,9.89,22.091,22.091C197.22,239.529,187.33,249.421,175.129,249.421z
			 M336.871,249.421c-12.201,0-22.091-9.89-22.091-22.091c0-12.201,9.89-22.091,22.091-22.091s22.091,9.89,22.091,22.091
			C358.962,239.529,349.072,249.421,336.871,249.421z"/>
	</g>
</g>
<g>
</g>
<g>
</g>
<g>
</g>
<g>
</g>
<g>
</g>
<g>
</g>
<g>
</g>
<g>
</g>
<g>
</g>
<g>
</g>
<g>
</g>
<g>
</g>
<g>
</g>
<g>
</g>
<g>
</g>
</svg>
